<?xml version="1.0" encoding="utf-8"?>
<!-- Generator: Adobe Illustrator 26.1.0, SVG Export Plug-In . SVG Version: 6.00 Build 0)  -->
<svg version="1.1" id="Calque_1" xmlns="http://www.w3.org/2000/svg" xmlns:xlink="http://www.w3.org/1999/xlink" x="0px" y="0px"
	 viewBox="0 0 800 800" style="enable-background:new 0 0 800 800;" xml:space="preserve">
<style type="text/css">
	.st0{fill:#E95022;}
	.st1{stroke:#FFFFFF;stroke-width:1.3326;stroke-miterlimit:10;}
	.st2{fill:none;stroke:#000000;stroke-width:5.8449;stroke-miterlimit:10;}
	.st3{fill:none;stroke:#000000;stroke-width:6.4503;stroke-miterlimit:10;}
	.st4{fill:#FFFFFF;}
	.st5{stroke:#000000;stroke-width:1.3326;stroke-miterlimit:10;}
	.st6{fill:#FFFFFF;stroke:#000000;stroke-width:1.3326;stroke-miterlimit:10;}
	.st7{fill:none;stroke:#000000;stroke-width:2.8533;stroke-miterlimit:10;}
	.st8{fill:none;stroke:#E95022;stroke-width:1.9271;stroke-linecap:round;stroke-linejoin:round;stroke-miterlimit:10;}
	.st9{fill:none;stroke:#E95022;stroke-width:8.5066;stroke-linecap:round;stroke-linejoin:round;stroke-miterlimit:10;}
</style>
<ellipse class="st9" cx="385.1" cy="251.11" rx="242.39" ry="32.56"/>
<g>
	<path d="M578.73,280.15l-43.35,266.58l-122.05,88.33c-4.95-26.24-10.18-58.74-15.68-97.53c-5.52-38.78-10.18-74.71-13.97-107.79
		c-3.05,25.86-6.27,51.71-9.7,77.57c-10.65,77.95-16.35,120.54-17.11,127.75l-120.91-88.33l-44.49-266.58l96.39-37.48l18.82,268.63
		c0-49.42,3.42-100.56,10.27-153.42c5.32-38.4,10.84-76.8,16.54-115.21h102.09l20.53,278.32l27.38-278.32L578.73,280.15z"/>
</g>
</svg>
